<?xml version="1.0" standalone="no"?>
<!DOCTYPE svg PUBLIC "-//W3C//DTD SVG 20010904//EN"
 "http://www.w3.org/TR/2001/REC-SVG-20010904/DTD/svg10.dtd">
<svg version="1.0" xmlns="http://www.w3.org/2000/svg"
 width="1254.000000pt" height="1254.000000pt" viewBox="0 0 1254.000000 1254.000000"
 preserveAspectRatio="xMidYMid meet">

<g transform="translate(0.000000,1254.000000) scale(0.100000,-0.100000)"
fill="#000000" stroke="none">
<path d="M5535 11464 c-16 -2 -84 -9 -150 -15 -459 -42 -944 -160 -1400 -341
-214 -85 -398 -175 -389 -189 4 -8 3 -9 -4 -5 -11 6 -132 -48 -132 -59 0 -3 9
-1 19 5 27 14 31 13 31 -9 0 -11 9 -23 20 -26 11 -3 20 -11 20 -17 0 -5 7 -8
14 -5 10 4 13 1 9 -9 -6 -16 9 -10 202 81 429 201 952 357 1425 424 294 41
361 46 705 46 354 -1 471 -9 750 -55 1204 -200 2188 -848 2785 -1832 60 -99
79 -119 29 -30 -237 419 -607 859 -964 1146 -124 99 -400 284 -550 369 -353
199 -803 360 -1245 446 -307 59 -454 73 -815 76 -181 2 -343 1 -360 -1z
m-1989 -579 c-11 -8 -25 -15 -30 -15 -6 1 0 7 14 15 32 19 40 18 16 0z"/>
<path d="M3480 10841 c0 -5 7 -14 15 -21 10 -9 15 -9 15 -1 0 6 -5 11 -11 11
-5 0 -7 5 -4 10 3 6 1 10 -4 10 -6 0 -11 -4 -11 -9z"/>
<path d="M5360 10760 c-244 -43 -430 -263 -430 -510 0 -176 108 -366 257 -453
198 -114 454 -82 614 78 210 210 214 529 9 736 -122 123 -286 177 -450 149z"/>
<path d="M7103 9626 c-104 -34 -186 -106 -231 -205 -36 -77 -37 -208 -4 -293
47 -117 168 -210 294 -224 193 -22 370 115 403 314 10 63 -11 169 -49 238 -36
66 -129 145 -193 164 -61 19 -173 21 -220 6z"/>
<path d="M5327 9349 c-93 -22 -192 -94 -249 -181 -36 -54 -55 -94 -385 -798
-102 -217 -236 -503 -298 -635 -62 -132 -141 -301 -175 -375 -34 -74 -94 -202
-132 -285 -39 -82 -76 -179 -84 -215 -38 -178 9 -342 131 -466 191 -192 506
-192 700 1 43 43 81 98 135 194 50 88 93 151 128 186 133 132 329 169 502 96
59 -25 69 -27 74 -14 4 9 4 18 1 21 -3 3 -5 0 -5 -6 0 -7 -4 -12 -10 -12 -5 0
-7 7 -3 16 5 13 2 15 -14 10 -16 -5 -29 4 -57 39 -21 25 -33 45 -27 45 6 0 7
8 4 18 -6 14 -4 15 9 5 12 -11 17 -9 26 13 26 56 8 124 -33 124 -28 0 -38 12
-29 34 4 11 13 14 24 11 16 -5 19 2 25 52 4 32 14 73 21 92 8 18 14 51 14 72
0 21 5 41 10 44 6 4 7 11 3 18 -3 6 -7 35 -7 64 -1 30 -6 57 -13 61 -12 7 -33
54 -33 73 0 5 11 14 24 19 15 5 24 17 25 32 6 129 3 162 -13 173 -9 7 -23 33
-32 59 -9 26 -22 46 -30 46 -13 0 -13 3 0 23 8 12 17 37 21 54 8 40 25 53 26
21 1 -18 3 -16 10 10 8 27 14 32 29 27 14 -4 20 -2 20 8 0 9 -4 17 -8 19 -10
4 -24 78 -15 78 4 0 15 -7 25 -17 17 -15 18 -15 18 0 0 10 -7 17 -15 17 -8 0
-15 5 -15 10 0 6 7 10 15 10 26 0 36 36 29 105 -6 55 -10 65 -23 60 -12 -5
-13 -3 -5 5 9 9 20 8 44 -5 21 -11 29 -12 24 -4 -5 8 -3 11 8 7 10 -4 14 1 14
22 0 21 -3 27 -15 22 -10 -4 -11 -7 -3 -10 7 -2 12 -8 12 -14 0 -6 -6 -5 -15
2 -14 11 -12 16 17 40 23 20 35 25 41 16 6 -7 7 -6 4 4 -5 16 26 62 37 55 3
-3 4 -2 2 1 -2 3 11 36 29 72 34 67 55 153 55 224 0 26 -21 82 -69 182 -95
199 -161 269 -300 316 -64 21 -156 25 -224 9z m398 -929 c3 -5 2 -10 -4 -10
-5 0 -13 5 -16 10 -3 6 -2 10 4 10 5 0 13 -4 16 -10z m-52 -37 c-7 -2 -14 -23
-15 -46 -1 -39 -2 -39 -5 -9 -5 41 2 62 19 61 10 0 10 -2 1 -6z m-108 -713 c3
-5 1 -10 -4 -10 -6 0 -11 5 -11 10 0 6 2 10 4 10 3 0 8 -4 11 -10z m-9 -459
c-4 -6 -14 -11 -22 -11 -8 0 -14 -10 -14 -25 0 -31 -16 -33 -24 -2 -4 16 1 28
21 44 27 22 53 17 39 -6z m-107 -122 c-15 -9 -32 -2 -24 11 3 5 13 6 21 3 12
-4 13 -8 3 -14z"/>
<path d="M5912 8708 c2 -6 10 -14 16 -16 7 -2 10 2 6 12 -7 18 -28 22 -22 4z"/>
<path d="M7119 8627 c-63 -18 -130 -59 -170 -104 -18 -21 -60 -94 -93 -163
-68 -141 -71 -165 -36 -270 57 -171 177 -254 390 -269 58 -5 98 -9 88 -10 -12
-1 -17 -14 -20 -58 -5 -73 0 -93 22 -93 10 0 20 -7 24 -15 3 -8 12 -15 21 -15
17 0 21 -26 4 -32 -6 -2 -7 -12 -1 -28 5 -14 12 -24 16 -22 13 6 61 -52 58
-69 -1 -8 2 -26 7 -40 8 -19 10 -20 10 -5 1 15 3 16 16 6 13 -11 13 -15 3 -21
-10 -7 -7 -14 13 -33 18 -17 29 -40 33 -73 4 -26 17 -64 30 -83 12 -19 23 -51
24 -70 4 -56 22 -110 36 -110 9 0 12 -7 9 -20 -4 -16 0 -20 18 -21 15 0 -2
-10 -41 -23 -89 -32 -162 -66 -263 -125 -85 -49 -242 -160 -235 -166 1 -1 34
4 72 11 81 17 149 8 225 -30 72 -37 120 -88 190 -203 68 -111 106 -148 198
-191 50 -23 70 -27 153 -27 82 0 103 4 150 26 190 90 271 297 192 494 -20 51
-81 187 -177 395 -81 177 -225 496 -310 690 -165 373 -269 597 -296 636 -74
109 -233 167 -360 131z"/>
<path d="M9415 8619 c-190 -18 -410 -77 -558 -149 l-68 -34 -95 -188 c-88
-176 -103 -216 -59 -168 27 30 167 117 240 150 295 132 741 136 929 8 106 -73
147 -139 154 -250 9 -152 -54 -284 -213 -443 -121 -122 -265 -222 -454 -316
-121 -59 -393 -169 -420 -169 -5 0 -12 -4 -15 -9 -3 -5 37 -9 90 -10 286 -4
548 -107 699 -274 218 -241 203 -614 -39 -976 -227 -339 -619 -593 -1116 -725
l-55 -14 91 -1 c51 -1 138 4 195 9 830 82 1487 591 1589 1233 7 43 10 80 8 83
-3 3 -54 -9 -114 -25 -59 -17 -110 -29 -112 -26 -2 2 23 113 56 247 67 275 68
249 -13 348 -95 116 -233 212 -405 280 l-94 38 84 42 c314 158 544 359 648
566 51 101 65 164 60 274 -3 84 -8 105 -35 161 -93 188 -324 307 -660 339
-121 11 -187 11 -318 -1z"/>
<path d="M5860 8579 c0 -5 5 -7 10 -4 6 3 10 8 10 11 0 2 -4 4 -10 4 -5 0 -10
-5 -10 -11z"/>
<path d="M12085 7998 c-166 -88 -472 -136 -790 -124 -149 5 -370 25 -460 42
l-31 5 -78 -203 c-43 -112 -135 -347 -203 -523 -167 -427 -273 -708 -270 -711
2 -2 45 5 97 16 454 92 834 -14 1017 -282 73 -109 95 -182 100 -343 4 -115 2
-141 -21 -230 -81 -318 -320 -598 -655 -765 -199 -99 -524 -178 -745 -181 -34
0 -70 -5 -81 -10 -34 -16 465 -3 599 16 128 17 348 70 433 104 96 38 237 113
328 175 99 67 259 219 323 307 95 131 170 298 208 464 26 115 24 321 -5 430
-80 304 -308 517 -642 601 -134 33 -384 43 -526 21 -55 -8 -93 -10 -93 -4 0 5
42 116 94 246 51 130 113 285 136 345 l42 108 57 -6 c297 -36 603 -21 769 38
84 30 182 89 246 147 67 61 147 177 184 266 34 81 31 85 -33 51z"/>
<path d="M5606 7643 c-12 -12 -6 -43 9 -43 8 0 15 9 15 19 0 21 -13 34 -24 24z"/>
<path d="M5640 7270 c0 -5 5 -10 11 -10 5 0 7 5 4 10 -3 6 -8 10 -11 10 -2 0
-4 -4 -4 -10z"/>
<path d="M7520 7195 c0 -8 7 -15 16 -15 14 0 14 3 4 15 -7 8 -14 15 -16 15 -2
0 -4 -7 -4 -15z"/>
<path d="M5631 6911 c-8 -6 -9 -11 -3 -15 6 -3 14 -1 17 5 9 14 2 20 -14 10z"/>
<path d="M5692 6841 c-10 -6 -9 -11 4 -22 16 -12 17 -12 11 3 -3 9 -1 19 6 22
7 2 8 5 2 5 -5 0 -16 -3 -23 -8z"/>
<path d="M5720 6807 c0 -2 15 -16 33 -33 l32 -29 -29 33 c-28 30 -36 37 -36
29z"/>
<path d="M2927 5920 c-106 -27 -184 -101 -216 -205 -21 -66 -21 -85 -21 -1006
l0 -939 140 0 140 0 2 398 3 397 160 0 160 0 3 -397 2 -398 140 0 140 0 -2
963 -3 962 -33 67 c-34 70 -71 105 -150 141 -42 19 -66 22 -237 24 -104 1
-207 -2 -228 -7z m328 -280 c14 -13 29 -40 35 -59 6 -21 10 -188 10 -393 l0
-358 -165 0 -166 0 3 378 c3 346 5 380 21 406 29 43 71 57 160 53 64 -3 81 -8
102 -27z"/>
<path d="M3962 4853 l3 -1078 138 -3 c111 -2 138 0 143 12 3 7 -1 315 -9 682
-8 368 -14 670 -13 671 2 2 12 -43 24 -100 11 -56 56 -274 99 -484 l78 -383
107 0 106 0 21 93 c29 124 91 417 143 669 23 114 43 206 45 205 1 -2 -2 -178
-7 -392 -5 -215 -12 -522 -16 -683 l-7 -293 144 3 144 3 3 1078 2 1077 -160 0
c-88 0 -160 -2 -160 -5 0 -3 -36 -177 -79 -387 -44 -211 -101 -486 -126 -613
-42 -207 -55 -261 -55 -228 0 6 -38 195 -86 420 -47 224 -104 499 -126 611
l-42 202 -158 0 -158 0 2 -1077z"/>
<path d="M5480 4850 l0 -1080 140 0 140 0 0 1080 0 1080 -140 0 -140 0 0
-1080z"/>
<path d="M6311 5915 c-104 -29 -162 -84 -198 -188 -17 -49 -18 -107 -18 -877
0 -636 3 -835 13 -867 21 -69 72 -135 127 -165 75 -40 157 -49 461 -48 l274 1
0 530 0 529 -215 0 -215 0 0 -130 0 -129 73 -3 72 -3 3 -262 2 -263 -52 -2
c-94 -4 -172 1 -200 13 -59 24 -58 8 -58 806 0 700 1 729 19 759 25 41 76 58
154 51 112 -10 135 -50 136 -234 l1 -113 141 0 141 0 -4 183 -3 182 -33 67
c-37 75 -92 128 -163 154 -63 24 -381 30 -458 9z"/>
<path d="M7513 5920 c-102 -21 -177 -83 -215 -178 l-23 -57 0 -835 c0 -953 -4
-902 84 -990 69 -69 113 -81 316 -87 325 -10 434 34 492 201 17 47 18 111 18
876 0 769 -1 828 -18 877 -24 69 -85 136 -155 170 -56 28 -60 28 -257 30 -110
1 -219 -2 -242 -7z m332 -266 c66 -31 65 -14 65 -798 0 -387 -3 -717 -6 -735
-12 -59 -43 -77 -143 -84 -106 -8 -154 4 -185 46 -21 28 -21 35 -24 750 -2
487 0 734 8 758 10 36 37 62 75 72 48 12 178 7 210 -9z"/>
<path d="M10327 4416 c-20 -8 -45 -20 -54 -27 -53 -44 -70 -187 -32 -265 47
-98 197 -112 259 -24 26 36 42 123 34 178 -16 107 -113 172 -207 138z m102
-70 c39 -31 52 -121 26 -183 -28 -66 -82 -82 -131 -39 -24 20 -28 32 -32 90
-5 82 10 124 52 142 32 13 60 10 85 -10z"/>
<path d="M10855 4415 c-22 -8 -41 -15 -41 -15 -1 0 -9 -16 -19 -35 -32 -68 4
-125 102 -161 70 -25 90 -56 57 -88 -24 -24 -71 -20 -100 9 -14 14 -36 25 -50
25 -22 0 -25 -4 -22 -32 4 -45 44 -71 115 -75 75 -5 117 19 134 76 10 34 9 44
-7 78 -16 33 -29 42 -91 67 -83 32 -101 58 -63 88 30 24 56 23 85 -6 33 -33
65 -25 65 16 0 24 -7 32 -42 48 -51 23 -70 24 -123 5z"/>
<path d="M9215 4408 c-3 -7 -32 -91 -65 -186 l-60 -173 37 3 c32 3 38 8 48 38
l12 35 69 0 69 0 9 -37 c9 -36 12 -38 47 -38 l38 0 -63 183 -63 182 -37 3
c-23 2 -38 -2 -41 -10z m64 -140 c12 -34 21 -66 21 -70 0 -4 -20 -8 -45 -8
-25 0 -45 2 -45 4 0 10 41 136 44 136 3 0 14 -28 25 -62z"/>
<path d="M9660 4236 l0 -186 35 0 35 0 0 123 1 122 22 -29 c12 -17 47 -71 77
-120 52 -86 57 -91 93 -94 l37 -3 0 185 0 186 -35 0 -35 0 0 -122 c0 -78 -3
-119 -10 -112 -5 5 -40 59 -77 119 -66 106 -70 110 -106 113 l-37 3 0 -185z"/>
<path d="M10113 3443 c-458 -659 -1175 -1214 -2031 -1573 -481 -201 -1001
-334 -1510 -384 -87 -9 -116 -14 -81 -15 30 0 127 6 215 15 629 62 1328 272
1855 558 56 31 103 56 105 56 7 0 242 145 326 201 439 295 807 657 1090 1074
79 116 122 185 116 185 -2 0 -40 -53 -85 -117z"/>
<path d="M4741 3450 c-57 -12 -109 -53 -132 -104 -17 -37 -19 -70 -19 -349 0
-286 1 -311 20 -346 41 -81 112 -116 219 -109 123 9 180 58 202 173 15 76 6
576 -11 620 -15 39 -57 84 -95 100 -42 18 -132 25 -184 15z m129 -140 c11 -11
22 -30 25 -43 4 -13 5 -143 3 -289 -3 -294 -4 -299 -69 -312 -34 -7 -83 14
-93 39 -3 9 -6 144 -6 300 0 279 0 285 22 305 29 27 91 27 118 0z"/>
<path d="M3580 3001 l0 -451 148 0 c163 0 209 12 250 65 40 50 43 86 40 406
l-3 306 -27 40 c-43 66 -79 77 -255 81 l-153 4 0 -451z m281 300 c18 -21 19
-46 19 -303 l0 -279 -25 -24 c-20 -21 -34 -25 -80 -25 l-55 0 0 331 0 331 61
-4 c49 -4 66 -9 80 -27z"/>
<path d="M5550 3430 c0 -12 20 -146 44 -298 25 -152 55 -346 67 -430 l23 -153
80 3 81 3 22 140 c12 77 32 207 44 289 16 102 25 141 30 125 4 -13 26 -144 50
-291 l42 -268 78 0 c73 0 79 2 84 23 4 21 19 118 95 627 17 113 33 215 35 228
5 21 3 22 -64 22 -38 0 -72 -3 -74 -7 -3 -5 -22 -142 -43 -306 -21 -163 -41
-291 -45 -285 -3 7 -9 38 -13 68 -8 66 -75 476 -83 508 -5 20 -11 22 -68 22
l-63 0 -48 -300 c-27 -165 -51 -296 -55 -292 -3 4 -11 52 -18 107 -6 55 -23
187 -38 293 l-26 192 -69 0 c-62 0 -68 -2 -68 -20z"/>
<path d="M6850 3000 l0 -450 65 0 65 0 0 262 c0 155 4 258 9 253 5 -6 47 -122
94 -260 l85 -250 66 -3 66 -3 0 451 0 451 -67 -3 -68 -3 -5 -247 -5 -247 -85
247 -85 247 -67 3 -68 3 0 -451z"/>
<path d="M10351 3034 c-27 -34 -26 -50 4 -79 28 -29 55 -32 83 -7 31 27 35 55
11 85 -28 36 -70 36 -98 1z"/>
<path d="M1815 2870 c-9 -14 5 -32 19 -27 7 3 19 1 27 -4 25 -15 -4 -44 -41
-41 -31 2 -32 1 -27 -27 4 -21 1 -33 -13 -46 -26 -24 -52 -12 -48 21 4 36 -19
42 -33 10 -15 -32 8 -72 47 -82 30 -8 77 22 82 52 2 10 17 26 35 34 42 20 56
59 33 94 -17 27 -68 37 -81 16z"/>
<path d="M10114 2868 c-48 -23 -50 -93 -3 -118 21 -12 65 -9 100 5 9 3 24 -1
33 -10 21 -21 6 -42 -32 -47 -39 -4 -35 -32 5 -36 63 -6 98 73 53 118 -23 23
-52 25 -99 9 -27 -10 -36 -9 -49 4 -13 13 -13 19 -2 32 7 8 21 13 30 10 25 -8
34 22 10 35 -22 12 -19 12 -46 -2z"/>
<path d="M1942 2717 c-23 -23 -42 -46 -42 -50 0 -4 11 -12 25 -17 30 -12 32
-29 5 -58 -34 -36 -55 -28 -51 19 3 27 -29 32 -38 7 -11 -30 -3 -56 22 -73 32
-22 52 -18 92 16 41 36 48 81 16 101 -15 9 -17 15 -9 25 15 18 28 16 55 -9 18
-17 26 -19 35 -10 10 10 4 21 -28 52 l-40 40 -42 -43z"/>
<path d="M9951 2706 c-9 -11 1 -36 51 -120 53 -90 64 -104 76 -92 11 11 12 18
2 36 -10 19 -9 26 9 43 19 19 21 20 39 4 17 -15 19 -15 35 0 15 16 10 21 -78
80 -99 66 -115 72 -134 49z m108 -103 c-10 -11 -16 -7 -35 21 -33 48 -30 52
11 20 28 -21 33 -29 24 -41z"/>
<path d="M9815 2572 c-62 -38 -62 -46 -7 -109 28 -32 64 -71 81 -87 l30 -29
36 36 c43 43 44 71 5 125 -51 70 -99 91 -145 64z m87 -69 c50 -49 60 -79 31
-90 -12 -5 -31 10 -69 53 -48 53 -52 60 -37 72 23 17 22 17 75 -35z"/>
<path d="M2126 2468 c-87 -64 -95 -73 -82 -87 14 -13 18 -13 36 4 20 18 21 18
41 -2 18 -17 19 -24 9 -43 -10 -18 -9 -25 3 -37 12 -13 17 -9 39 29 34 58 88
166 88 175 0 5 -8 13 -19 20 -16 10 -32 1 -115 -59z m64 -28 c-21 -42 -37 -50
-46 -25 -4 8 6 25 23 39 40 36 46 32 23 -14z"/>
<path d="M9678 2456 c-16 -12 -11 -21 58 -100 41 -47 79 -86 82 -86 4 0 13 4
21 9 10 7 -3 27 -54 87 -38 44 -73 84 -79 91 -8 9 -15 9 -28 -1z"/>
<path d="M2277 2343 c-39 -48 -66 -91 -63 -99 9 -23 21 -16 62 36 21 27 42 49
45 50 4 0 -4 -32 -17 -72 -21 -64 -22 -74 -9 -87 8 -8 16 -13 18 -10 78 91
146 183 142 190 -13 20 -35 7 -70 -41 -21 -28 -39 -49 -41 -47 -2 1 6 33 17
71 16 53 18 70 8 82 -6 8 -14 14 -18 13 -3 0 -37 -39 -74 -86z"/>
<path d="M9593 2389 c-8 -8 -1 -31 28 -85 22 -41 37 -74 33 -74 -3 0 -32 23
-64 50 -61 53 -69 57 -87 39 -9 -9 11 -30 80 -85 51 -41 97 -74 103 -74 6 0
17 6 23 14 8 10 -1 38 -39 120 -28 58 -54 106 -58 106 -5 0 -13 -5 -19 -11z"/>
<path d="M4260 2115 l0 -165 54 0 c38 0 61 6 77 19 22 18 24 28 27 126 5 154
-14 185 -113 185 l-45 0 0 -165z m105 -1 l0 -109 -27 -3 -28 -3 0 114 c0 62 3
116 6 120 3 3 16 2 27 -2 21 -8 22 -15 22 -117z"/>
<path d="M4557 2274 c-4 -4 -7 -79 -7 -166 l0 -158 71 0 c67 0 70 1 67 23 -2
18 -10 23 -45 25 l-43 3 0 50 0 49 35 0 c28 0 35 4 35 20 0 16 -7 20 -36 20
l-35 0 3 48 3 47 40 0 c33 0 40 3 40 20 0 17 -8 20 -60 23 -34 2 -64 0 -68 -4z"/>
<path d="M4835 2255 c-18 -17 -25 -35 -25 -61 0 -36 21 -63 88 -116 12 -10 22
-29 22 -42 0 -47 -55 -61 -67 -16 -8 30 -43 26 -43 -5 0 -55 77 -85 128 -49
18 12 22 25 22 69 0 52 -1 55 -50 96 -38 32 -50 49 -50 69 0 17 7 30 16 34 19
7 44 -10 44 -30 0 -8 9 -14 20 -14 15 0 20 7 20 29 0 59 -80 82 -125 36z"/>
<path d="M5096 2272 c-2 -4 -3 -41 -2 -82 2 -41 4 -113 5 -159 l1 -83 61 4
c85 6 89 13 89 162 0 67 -4 126 -8 132 -14 21 -51 34 -96 34 -25 0 -47 -4 -50
-8z m95 -42 c17 -9 19 -22 19 -105 0 -114 -4 -125 -41 -125 l-29 0 0 113 c0
132 4 142 51 117z"/>
<path d="M5390 2115 l0 -165 71 0 c67 0 70 1 67 23 -2 18 -10 23 -45 25 l-43
3 0 50 0 49 35 0 c28 0 35 4 35 20 0 16 -7 20 -35 20 l-35 0 0 50 0 50 46 0
c38 0 45 3 42 18 -3 14 -16 18 -71 20 l-67 3 0 -166z"/>
<path d="M5853 2256 c-37 -24 -46 -62 -13 -53 19 5 20 0 20 -124 l0 -129 25 0
25 0 -2 162 c-2 97 -7 162 -13 164 -5 1 -24 -8 -42 -20z"/>
<path d="M6065 2255 c-20 -20 -25 -34 -25 -78 0 -74 28 -112 77 -104 l34 6 -7
-37 c-3 -20 -10 -41 -15 -46 -10 -12 -39 11 -39 31 0 10 -6 13 -16 9 -9 -3
-18 -6 -20 -6 -12 0 -1 -43 16 -60 26 -26 72 -26 96 1 16 18 20 40 22 144 l4
122 -28 22 c-35 28 -69 27 -99 -4z m73 -27 c17 -17 15 -93 -3 -108 -29 -24
-45 -4 -45 53 0 30 3 57 7 60 10 11 28 8 41 -5z"/>
<path d="M6346 2259 c-23 -18 -26 -27 -26 -85 0 -78 23 -110 72 -100 29 6 29
5 26 -37 -2 -31 -8 -43 -21 -45 -12 -3 -20 4 -24 17 -8 30 -43 28 -43 -2 0
-29 29 -57 57 -57 66 0 83 37 83 178 0 101 -2 110 -23 130 -29 28 -67 28 -101
1z m69 -84 c0 -53 -2 -60 -20 -60 -17 0 -20 8 -23 49 -4 60 3 79 25 74 15 -3
18 -14 18 -63z"/>
<path d="M6623 2258 c-37 -26 -46 -63 -13 -53 19 6 20 2 20 -124 l0 -131 25 0
25 0 -2 162 c-2 97 -7 163 -13 165 -6 2 -25 -7 -42 -19z"/>
<path d="M2473 2238 c-48 -52 -63 -80 -63 -119 0 -43 25 -69 66 -69 47 0 134
102 134 158 0 30 -37 62 -73 62 -24 0 -41 -9 -64 -32z m93 -23 c11 -27 -65
-125 -97 -125 -26 0 -29 24 -7 61 43 72 90 101 104 64z"/>
<path d="M9306 2169 c-37 -29 -35 -72 8 -135 43 -63 86 -85 125 -63 42 24 50
62 22 115 -28 51 -83 104 -110 104 -10 0 -30 -9 -45 -21z m79 -51 c59 -70 69
-131 19 -114 -25 9 -84 88 -84 113 0 44 29 44 65 1z"/>
<path d="M2665 2130 c-13 -15 -16 -29 -11 -62 14 -90 12 -103 -9 -103 -14 0
-21 8 -24 25 -6 49 -41 48 -41 0 0 -67 83 -92 124 -37 20 27 20 28 1 82 -13
41 -15 59 -7 67 15 15 42 2 42 -21 0 -19 23 -35 34 -24 13 13 5 54 -14 73 -25
25 -72 26 -95 0z"/>
<path d="M6914 2115 c-4 -8 -4 -22 0 -30 4 -13 34 -15 181 -15 174 0 215 6
215 34 0 23 -25 26 -211 26 -150 0 -181 -2 -185 -15z"/>
<path d="M9118 2038 c-21 -12 -38 -25 -38 -30 0 -18 123 -193 134 -190 23 7
75 53 81 72 14 45 -73 170 -118 170 -12 0 -39 -10 -59 -22z m82 -40 c48 -51
64 -119 30 -125 -22 -4 -102 121 -87 136 17 17 34 13 57 -11z"/>
<path d="M2881 1893 c-47 -72 -59 -98 -49 -104 7 -5 17 -7 22 -6 16 5 127 187
121 197 -15 24 -36 4 -94 -87z"/>
<path d="M8987 1953 c-4 -3 7 -30 24 -60 17 -29 28 -53 25 -53 -3 0 -28 16
-55 35 -51 37 -58 39 -79 26 -19 -11 102 -213 123 -204 21 7 19 16 -15 71 -16
27 -30 52 -30 56 0 4 25 -12 55 -34 54 -40 79 -48 90 -31 7 12 -106 201 -121
201 -6 0 -14 -3 -17 -7z"/>
<path d="M3037 1908 c-90 -147 -108 -181 -95 -189 20 -13 21 -13 61 54 l38 62
-6 -55 c-3 -30 -8 -67 -11 -81 -6 -30 23 -50 38 -27 37 57 108 179 108 186 0
6 -7 12 -15 15 -9 4 -24 -12 -46 -49 -17 -30 -33 -53 -35 -51 -2 2 0 33 4 70
5 43 5 70 -2 77 -15 15 -24 12 -39 -12z"/>
<path d="M8766 1825 c-20 -15 -19 -17 13 -128 18 -61 34 -113 35 -115 2 -1 10
0 19 4 12 4 15 14 11 34 -5 22 -1 31 16 40 17 9 25 9 39 -4 17 -15 51 -13 51
3 0 3 -38 45 -83 93 -77 83 -83 87 -101 73z m87 -127 c-10 -18 -32 -6 -42 23
-18 51 -13 56 18 19 16 -19 27 -38 24 -42z"/>
<path d="M3215 1765 c-41 -43 -70 -115 -61 -150 4 -17 18 -31 39 -40 28 -12
36 -11 61 3 16 10 31 22 33 28 6 19 -27 25 -51 9 -20 -14 -25 -14 -35 -1 -10
11 -8 25 9 65 25 57 53 86 75 78 8 -4 15 -17 15 -31 0 -20 16 -36 36 -36 2 0
4 18 4 39 0 30 -6 44 -22 55 -36 25 -67 19 -103 -19z"/>
<path d="M8623 1747 c-26 -12 -27 -21 -9 -99 8 -32 11 -58 8 -58 -4 1 -25 23
-46 50 -39 50 -57 58 -86 40 -12 -8 -7 -25 35 -110 28 -56 53 -104 57 -106 3
-2 13 -1 22 2 13 5 10 17 -19 75 -20 38 -32 69 -28 69 5 -1 28 -25 52 -55 24
-30 49 -55 57 -55 17 0 17 -1 -1 80 -20 92 -18 93 21 18 35 -69 40 -74 61 -60
9 6 -2 35 -41 111 -30 57 -56 104 -58 106 -2 1 -13 -2 -25 -8z"/>
<path d="M3379 1620 c-28 -54 -52 -102 -51 -106 0 -5 20 -20 45 -34 38 -21 48
-23 59 -11 11 11 10 15 -5 25 -52 32 -52 27 -8 114 46 91 47 97 26 105 -10 4
-29 -22 -66 -93z"/>
<path d="M5483 1671 c-46 -29 -62 -86 -39 -143 18 -48 179 -228 203 -228 8 0
42 21 76 47 164 126 204 193 162 273 -38 73 -154 78 -202 10 -13 -18 -15 -18
-46 16 -42 46 -105 56 -154 25z"/>
<path d="M3550 1560 c-22 -44 -40 -92 -40 -108 0 -57 79 -88 120 -46 17 18 80
152 80 172 0 5 -7 13 -15 16 -12 4 -25 -15 -55 -78 -43 -93 -55 -106 -78 -83
-14 15 -12 23 21 96 42 90 43 97 22 105 -11 4 -26 -16 -55 -74z"/>
<path d="M8333 1600 c-24 -10 -43 -21 -43 -23 0 -5 91 -201 95 -205 2 -2 13
-1 24 3 l21 6 -20 39 c-11 22 -20 44 -20 50 0 21 26 9 55 -26 25 -30 35 -35
54 -29 23 7 22 8 -17 49 -34 35 -39 46 -35 73 4 25 0 37 -20 57 -31 31 -39 31
-94 6z m65 -32 c17 -17 15 -45 -4 -52 -25 -10 -30 -7 -43 21 -10 21 -9 28 1
34 18 12 32 11 46 -3z"/>
<path d="M3773 1513 c-8 -21 -28 -67 -44 -103 -30 -65 -31 -90 -6 -90 20 0
110 212 94 222 -21 13 -28 9 -44 -29z"/>
<path d="M8130 1510 c-27 -27 -25 -73 4 -136 38 -81 81 -102 130 -63 32 25 34
66 5 129 -39 87 -94 115 -139 70z m89 -62 c31 -66 35 -92 15 -108 -14 -13 -19
-12 -34 8 -26 31 -54 108 -47 127 12 30 44 17 66 -27z"/>
<path d="M3860 1395 c-23 -57 -39 -109 -35 -115 14 -23 32 -6 57 58 l27 67 0
-81 c1 -67 4 -83 18 -88 20 -8 25 0 62 94 44 112 48 133 25 128 -12 -2 -25
-22 -37 -53 -29 -79 -37 -77 -37 7 0 72 -6 88 -35 88 -1 0 -22 -47 -45 -105z"/>
<path d="M6363 1463 c9 -2 23 -2 30 0 6 3 -1 5 -18 5 -16 0 -22 -2 -12 -5z"/>
<path d="M7972 1449 c-42 -17 -52 -24 -47 -37 4 -10 23 -59 42 -109 22 -56 41
-93 50 -93 22 0 25 23 8 64 -9 21 -15 39 -13 41 2 1 15 9 30 16 20 10 25 18
18 28 -7 12 -13 13 -34 3 -24 -10 -27 -9 -41 18 -15 29 -15 31 10 40 15 6 31
10 36 10 5 0 9 9 9 20 0 24 -1 24 -68 -1z"/>
<path d="M4067 1313 c-20 -59 -37 -111 -37 -114 0 -4 20 -12 45 -19 64 -18 90
-4 121 65 43 94 22 155 -61 171 l-30 5 -38 -108z m110 13 c-13 -79 -47 -126
-82 -113 -12 5 -12 14 4 59 39 111 39 110 62 97 17 -9 20 -17 16 -43z"/>
<path d="M7766 1375 c-45 -46 -20 -99 60 -124 31 -10 50 -23 52 -34 4 -22 -25
-34 -49 -19 -18 12 -49 7 -49 -8 0 -16 39 -40 67 -40 35 0 73 36 73 69 0 31
-41 68 -84 76 -44 9 -63 29 -46 50 9 11 17 12 32 4 30 -16 51 -4 38 21 -13 24
-71 28 -94 5z"/>
<path d="M4312 1317 c-26 -28 -52 -98 -52 -143 0 -59 57 -92 110 -64 23 12 60
108 60 155 0 68 -73 100 -118 52z m75 -33 c7 -20 -26 -130 -44 -145 -10 -9
-17 -8 -28 1 -20 17 -19 39 6 105 15 41 25 55 40 55 11 0 22 -7 26 -16z"/>
<path d="M7641 1331 c-11 -7 -10 -19 6 -70 11 -33 17 -61 14 -61 -3 0 -26 25
-49 55 -45 57 -49 60 -70 47 -17 -11 44 -232 65 -232 23 0 24 23 3 84 -11 33
-19 61 -17 62 1 2 24 -24 50 -57 44 -55 69 -70 81 -51 5 9 -52 212 -63 224 -3
4 -12 3 -20 -1z"/>
<path d="M7393 1262 c-22 -3 -23 -6 -23 -128 0 -114 2 -125 17 -122 11 2 20
15 23 33 7 39 46 47 70 15 12 -16 21 -20 32 -14 13 8 7 25 -41 114 -48 90 -59
105 -78 102z m37 -101 c17 -35 18 -40 3 -45 -9 -4 -17 -5 -18 -4 -4 6 -13 88
-9 88 2 0 13 -18 24 -39z"/>
<path d="M4712 1125 c-28 -58 -52 -110 -52 -115 0 -20 42 -10 47 11 4 16 12
19 37 17 27 -3 31 -6 28 -29 -2 -20 2 -28 18 -32 14 -3 23 0 27 9 6 17 -6 224
-13 236 -3 5 -13 8 -22 8 -12 0 -34 -33 -70 -105z m61 -46 c-4 -4 -14 -5 -21
0 -11 7 -10 16 4 47 l18 39 4 -39 c2 -21 0 -42 -5 -47z"/>
<path d="M7148 1203 c-22 -6 -22 -9 2 -123 27 -126 26 -123 49 -110 17 8 18
15 10 42 -13 45 -11 58 6 58 8 0 24 -18 35 -40 12 -24 27 -40 39 -40 30 0 30
10 0 54 -25 38 -27 46 -17 73 8 23 8 36 -3 59 -12 25 -20 29 -59 31 -25 0 -53
-1 -62 -4z m81 -45 c10 -27 -9 -54 -32 -45 -14 5 -29 52 -19 62 13 13 43 3 51
-17z"/>
<path d="M4938 1170 c-47 -36 -64 -169 -28 -208 33 -35 87 -25 111 20 9 16 8
22 -2 29 -21 13 -27 11 -34 -12 -5 -14 -14 -19 -28 -17 -20 3 -22 8 -20 62 2
61 23 106 48 106 8 0 17 -11 21 -25 8 -31 44 -35 44 -5 0 26 -43 70 -68 70
-11 0 -31 -9 -44 -20z"/>
<path d="M7003 1176 c-52 -7 -63 -12 -63 -27 0 -13 7 -19 24 -19 26 0 32 -17
51 -147 7 -47 14 -56 35 -43 11 7 11 20 1 82 -7 40 -15 83 -18 94 -3 16 2 24
20 30 16 6 22 14 18 24 -5 12 -17 13 -68 6z"/>
<path d="M5152 1143 c-22 -9 -43 -62 -49 -127 -5 -56 -3 -66 16 -85 26 -26 81
-28 104 -3 18 20 36 90 37 143 0 57 -54 94 -108 72z m58 -38 c17 -20 4 -118
-20 -147 -16 -20 -20 -21 -35 -8 -14 12 -16 24 -11 69 7 54 27 101 45 101 5 0
14 -7 21 -15z"/>
<path d="M6722 1133 l-43 -4 7 -52 c15 -124 23 -179 28 -184 2 -3 29 -2 60 2
45 6 56 11 56 26 0 15 -6 17 -36 12 -39 -6 -54 5 -54 45 0 18 6 22 30 22 23 0
30 4 30 20 0 16 -7 20 -35 20 -32 0 -35 2 -35 30 0 28 3 30 35 30 28 0 35 4
35 20 0 13 -6 19 -17 18 -10 -1 -37 -3 -61 -5z"/>
<path d="M5336 1083 c-3 -27 -9 -80 -12 -119 l-7 -71 33 -6 c61 -13 92 -9 88
11 -2 12 -14 18 -41 20 -30 3 -37 7 -33 20 2 9 7 56 11 105 6 82 6 87 -13 87
-16 0 -21 -9 -26 -47z"/>
<path d="M5516 1028 c-4 -46 -9 -100 -12 -120 -5 -33 -3 -38 14 -38 23 0 32
18 32 66 0 31 2 34 31 34 l30 0 -2 -52 c-3 -47 -1 -53 17 -56 19 -3 21 4 27
80 11 140 10 158 -13 158 -17 0 -20 -7 -20 -45 0 -43 -1 -45 -30 -45 -29 0
-30 1 -30 50 0 42 -3 50 -19 50 -17 0 -20 -10 -25 -82z"/>
<path d="M6395 1085 c-50 -49 -24 -215 34 -223 69 -10 96 29 89 134 -4 58 -8
70 -32 90 -35 31 -61 30 -91 -1z m72 -45 c13 -26 17 -97 7 -124 -8 -22 -41
-20 -54 3 -11 22 -14 110 -4 136 9 22 36 15 51 -15z"/>
<path d="M4460 1073 c0 -16 -5 -34 -12 -41 -23 -23 3 -25 27 -2 29 27 30 63 3
68 -14 3 -18 -3 -18 -25z"/>
<path d="M5740 1044 c0 -33 -3 -90 -7 -127 l-6 -68 64 3 c49 2 64 7 64 18 0
10 -12 16 -37 18 -36 3 -38 5 -38 38 0 31 2 34 30 34 39 0 41 27 3 32 -23 2
-29 8 -31 36 -3 31 -2 32 37 32 30 0 41 4 41 15 0 11 -12 15 -44 15 -24 0 -51
3 -60 6 -13 5 -16 -3 -16 -52z"/>
<path d="M5930 971 c0 -113 1 -121 20 -121 17 0 19 8 22 73 l3 72 26 -70 c20
-53 32 -71 48 -73 20 -3 21 1 23 90 1 51 2 104 2 118 1 19 -4 25 -19 25 -18 0
-20 -7 -20 -67 1 -37 -1 -65 -4 -62 -2 2 -16 32 -31 67 -19 46 -31 63 -48 65
-22 3 -22 2 -22 -117z"/>
<path d="M6150 1016 c0 -40 3 -94 6 -120 l7 -46 44 0 c67 0 93 31 93 110 0 64
-18 113 -45 124 -9 3 -37 6 -61 6 l-44 0 0 -74z m103 -27 c9 -62 -3 -99 -31
-99 -17 0 -20 10 -25 77 -3 42 -4 80 -1 85 3 4 15 3 27 -1 17 -7 24 -20 30
-62z"/>
</g>
</svg>
